<svg
  xmlns="http://www.w3.org/2000/svg"
  width="%f"
  height="%f"
  viewBox="%d %d %f %f"
>
  <path
    id="nautilus-icon"
    transform="scale(%f)"
    fill="%s"
    d="m 39.59805,88.880859 c 8.888994,-0.534992 17.472873,-3.540253 24.089843,-10.90625 3.612019,-4.021002 6.022154,-8.561935 6.494141,-14.169922 C 70.76102,56.924662 68.576237,51.107954 64.506253,45.794921 62.520262,43.201939 60.176459,40.985454 57.414456,39.230468 56.628465,38.730437 56.483892,38.401209 57.180081,37.533203 60.185108,33.78221 61.876744,29.429684 62.486721,24.679687 63.255742,18.689665 62.05758,13.020481 59.41055,7.646484 58.491558,5.781476 57.677845,3.878776 56.980862,1.925781 56.524106,0.643009 55.667252,0.02827 54.457425,0 V 0.002 C 54.2847,-0.0018 54.105524,0.0045 53.918362,0.02348 43.855333,1.077477 34.080414,3.180711 25.041409,7.972699 c -3.506986,1.858015 -6.608462,4.2609 -9.646484,6.794922 -5.9039998,4.922985 -9.9110158,11.150923 -12.7910158,18.169922 -1.350009,3.290003 -2.10720104,6.781976 -2.40820304,10.292968 -0.562998,6.592025 0.05253,13.081811 2.31835904,19.382813 1.344,3.73697 3.535443,6.942126 5.982422,9.953125 3.1650138,3.891963 6.6873438,7.467093 10.8593748,10.328082 2.229997,1.529008 4.749474,2.470678 7.230469,3.470703 3.925002,1.578973 8.012689,2.429603 13.011719,2.515625 z m 0.33789,-1.113281 c -0.187464,-0.01351 -0.372345,-0.0781 -0.527343,-0.269531 7.772976,-4.031018 11.543588,-12.684534 5.558593,-18.853516 0.774993,-0.348095 1.585383,-0.512575 2.38086,-0.507813 2.38643,0.01512 4.65526,1.545542 5.550781,4.15625 1.614992,4.708007 0.171241,9.960625 -4.048828,13.306641 -2.399017,1.902992 -5.479125,1.800981 -8.369141,2.125 -0.167433,0.01909 -0.357457,0.05648 -0.544922,0.04297 z m -5.128906,-0.339844 c -0.91118,-0.01918 -1.859486,-0.178903 -2.841797,-0.511719 -1.805027,-0.610998 -3.679431,-1.039842 -5.857422,-1.964843 3.957997,-0.348095 7.443144,-1.036985 10.369141,-3.375 2.850028,-2.277015 4.762444,-5.000152 4.730469,-8.869141 -0.01134,-1.586003 -0.662929,-2.961539 -1.128906,-4.476563 4.419968,0.420019 7.184199,3.445832 6.658203,8.257813 -0.24189,2.216995 -1.025102,4.239089 -2.496094,5.914062 -2.239245,2.552074 -5.485148,5.108516 -9.433594,5.025391 z m 15.71875,-1.955078 c 3.152013,-3.514016 4.586761,-7.364445 3.675781,-11.855469 -0.475011,-2.336995 -1.476695,-4.414041 -3.845703,-5.498047 -1.153965,-0.52902 -1.260593,-1.034364 -0.04102,-1.777344 0.872504,-0.531893 1.751716,-0.725144 2.634765,-0.6875 0.529852,0.02268 1.061567,0.128245 1.591797,0.294922 3.467981,1.093002 4.845878,3.856169 5.50586,7.160156 0.704012,3.525015 -1.177971,8.304719 -3.958985,9.802735 -1.732989,0.933014 -3.466487,1.874525 -5.5625,2.560547 z M 26.769925,83.830078 c -1.123202,0.0119 -2.268142,-0.09139 -3.431641,-0.306641 -3.188031,-0.589001 -5.307339,-3.114644 -7.736328,-5.056641 2.770998,0.625021 5.458561,1.029468 8.351563,0.730469 5.221001,-0.541001 12.07341,-5.034059 11.732421,-11.832031 -0.02268,-0.467528 0.06217,-0.698124 0.296875,-0.705078 0.140599,-0.0038 0.334121,0.07311 0.589844,0.226562 2.729008,1.642999 4.693952,5.460961 3.294922,8.583985 -0.888983,1.982967 -1.921978,3.723739 -3.667969,5.052734 -2.886746,2.198268 -6.060082,3.27093 -9.429687,3.306641 z m 33.386718,-4.09961 c 1.184013,-2.109014 0.957621,-4.326944 0.808594,-6.544922 -0.270992,-4.005996 -3.386912,-7.625957 -7.21289,-8.292968 -0.879988,-0.153827 -1.163374,-0.429689 -0.652344,-1.304688 0.803225,-1.376239 2.134475,-2.056585 3.732422,-1.96289 0.532649,0.03024 1.09328,0.149106 1.675781,0.355468 3.643994,1.291011 5.547142,4.064305 6.49414,7.613282 0.444019,1.664012 0.77446,3.432445 -0.15039,5.023437 -1.176983,2.01702 -2.822292,3.668254 -4.695313,5.113281 z M 21.711331,78.095703 c -4.125997,-0.002 -7.960403,-0.780891 -10.732422,-4.212891 -1.1670048,-1.444006 -2.2679408,-2.940269 -3.5859368,-4.65625 4.4669848,1.885002 8.6382008,3.365736 13.2832028,3.21875 4.616012,-0.14589 9.533943,-3.151546 10.917968,-7.728516 0.136819,-0.453996 0.111871,-1.190023 0.712891,-1.207031 0.576,-0.01512 0.829038,0.633331 1.123047,1.111328 2.476006,4.038992 0.364747,7.961971 -2.816406,10.626953 -2.557985,2.14303 -5.632335,2.84966 -8.902344,2.847657 z m 44.519531,-5.839844 c 0.04384,-1.152983 -0.142483,-2.250241 -0.441406,-3.322266 -1.317997,-4.717001 -5.392866,-8.644159 -10.712891,-8.076172 -0.748989,0.08013 -0.824708,-0.312203 -0.679687,-0.945312 0.395981,-1.724977 1.976381,-2.935574 3.816406,-3.142578 0.392504,-0.04422 0.776633,-0.06351 1.150391,-0.05859 2.616151,0.03401 4.77811,1.235024 6.568359,3.091793 1.667981,1.728983 3.175783,3.758695 2.716797,6.429687 -0.370016,2.144996 -1.243972,4.13545 -2.417969,6.023438 z M 18.533597,71.308593 C 15.746758,71.213943 13.022346,70.43368 10.330472,69.310546 7.3394672,68.062546 5.0489822,66.115288 3.8500032,63.070312 1.1459782,56.200303 0.32550716,49.05437 1.3285192,41.777343 2.3215142,34.576361 5.3618842,28.158579 9.6878932,22.351562 13.04589,17.844589 17.309997,14.291813 21.850003,11.048828 26.869026,7.462812 32.638276,5.62074 38.463284,3.884765 43.224279,2.465742 48.103011,1.728443 53.016019,1.148437 c 0.560239,-0.06614 1.005953,-0.100173 1.371093,-0.08203 1.095383,0.0548 1.458726,0.587438 1.958985,2.193359 0.530985,1.706002 1.360556,3.265508 2.142578,4.853515 2.083993,4.240025 3.113196,8.730414 3.199218,13.441406 0.01512,1.374992 -0.04359,2.727033 -0.318359,4.082031 -0.796006,3.915024 -2.204448,7.545407 -4.605469,10.775391 -0.779981,1.049008 -1.582301,1.532122 -2.945312,1.078125 -1.922003,-0.641008 -3.969809,-0.961905 -5.966797,-0.878906 -4.208995,0.174992 -8.073859,1.419814 -11.505859,4.050781 -5.273008,4.043036 -8.940413,12.729226 -5.816407,19.490234 0.831005,1.796977 0.528468,3.66011 -0.394531,5.41211 -1.40999,2.676019 -3.704701,4.265618 -6.511719,5.099609 -1.722756,0.51188 -3.41774,0.701322 -5.089843,0.644531 z M 41.400784,67.03125 c -0.559663,-8.93e-4 -1.135858,-0.198627 -1.714844,-0.496094 0.06387,-0.130016 0.08343,-0.260024 0.148438,-0.291016 1.981984,-0.927987 3.6115,-2.176461 4.1875,-4.439453 0.05405,-0.213165 0.224501,-0.529081 0.519531,-0.455078 0.437027,0.109984 0.618166,0.480992 0.660156,0.916015 0.17915,1.848 -1.023519,2.972022 -2.1875,4.082032 -0.5105,0.488504 -1.053618,0.684486 -1.613281,0.683594 z m 3.447266,-0.0039 c -0.726992,-0.04687 -0.8309,-0.360194 -0.378907,-0.826172 1.420989,-1.464 2.142985,-3.121092 1.625,-5.246093 1.77498,1.056 1.259601,2.72529 1.183594,4.197265 -0.06501,1.273021 -1.142683,1.957999 -2.429687,1.875 z m 3.574219,-1.167969 c -0.218079,-0.02646 -0.258368,-0.303098 -0.19336,-0.498046 0.647713,-1.950165 0.056,-3.647704 -0.902344,-5.423828 0.451526,0.207504 0.933161,0.368404 1.347657,0.632805 1.662009,1.060006 1.936236,4.253338 0.449218,5.111328 -0.20485,0.119055 -0.476176,0.204947 -0.701171,0.177734 z M 37.926175,65.535163 c -0.915214,-0.01679 -1.801638,-0.357264 -2.666016,-1.228516 1.116095,-0.259275 2.032451,-0.01524 2.919922,-0.318359 1.516006,-0.522029 2.825927,-1.278939 3.794922,-2.585938 0.176126,-0.238488 0.386296,-0.498212 0.683594,-0.507812 0.09902,-0.0032 0.207558,0.02276 0.328125,0.08398 0.244913,0.126992 0.329678,0.354893 0.21289,0.640625 -0.702009,1.706003 -1.764761,3.061639 -3.59375,3.640625 -0.570756,0.18 -1.130559,0.285466 -1.679687,0.275391 z m -1.925782,-2.148438 c -1.74175,-0.02877 -3.369803,-0.926208 -4.023437,-3.298828 0.09109,-0.03024 0.207547,-0.113843 0.269531,-0.08398 2.826973,1.411993 5.612531,1.918141 8.310547,-0.300782 0.131528,-0.108472 0.277396,-0.160722 0.419922,-0.154296 0.142488,0.0076 0.281978,0.07179 0.400391,0.197265 0.232063,0.244914 0.156359,0.544602 0.06641,0.84961 -0.241134,0.811993 -0.980178,1.157435 -1.576172,1.564453 -1.089371,0.746376 -2.512492,1.248936 -3.867188,1.226562 z M 68.87344,62.033203 c -0.187842,-0.207118 -0.381703,-0.370389 -0.511719,-0.574219 -1.569977,-2.466973 -3.66152,-4.290555 -6.478515,-5.185547 -2.306986,-0.733002 -4.550217,-0.681636 -6.699219,0.609375 -0.630992,0.379049 -0.870739,-0.0227 -0.927734,-0.677734 -0.136819,-1.573002 0.677473,-2.522511 1.896484,-3.353516 1.04315,-0.709984 2.257533,-1.036032 3.509766,-1.070312 2.754897,-0.07559 5.699271,1.258243 7.441406,3.005859 1.776983,1.782009 2.636517,5.155108 1.769531,7.246094 z M 37.053128,60.410156 c -0.50501,0.02459 -1.012648,-0.0288 -1.503906,-0.138672 -3.076989,-0.686022 -4.892849,-1.556822 -4.921875,-4.714844 2.523023,2.549027 5.234767,3.592967 8.509765,2.583984 0.306898,-0.09411 0.617769,0.06615 0.759766,0.373047 0.221102,0.47898 -0.124694,0.761691 -0.439453,1.013672 -0.729378,0.583134 -1.562615,0.841834 -2.404297,0.882813 z m -0.002,-2.779297 c -2.33562,0.08588 -5.271772,-1.531735 -6.191406,-3.546875 -0.125103,-0.270992 -0.223494,-0.556875 -0.31836,-0.796875 0.08504,-0.297827 0.148641,-0.5413 0.22461,-0.779297 0.145889,-0.460989 -0.222111,-1.210286 0.330078,-1.363281 0.08844,-0.02646 0.166784,-0.0349 0.236328,-0.02734 0.487937,0.0378 0.555939,0.736375 0.777344,1.115234 1.324006,2.264013 3.390818,3.323752 5.882812,3.71875 0.477014,0.07597 1.193475,-0.132289 1.271484,0.501953 0.09487,0.773027 -0.732848,0.884215 -1.255859,1.033204 -0.301498,0.08563 -0.623371,0.132263 -0.957031,0.144531 z m 0.894531,-2.482422 c -0.183883,-0.0038 -0.371437,-0.03273 -0.554687,-0.08398 -1.877972,-0.523994 -3.320553,-1.636237 -4.392579,-3.283203 -1.508976,-2.319005 -1.72952,-3.555963 0.689453,-6.501954 0.348095,0.346961 0.265687,0.668011 0.25586,0.957032 -0.105071,3.275981 1.674953,5.376575 4.294922,6.976562 0.468019,0.284977 1.397622,0.372259 1.015625,1.205078 -0.241512,0.52577 -0.756944,0.741776 -1.308594,0.730469 z M 67.545315,53.6875 c -0.717997,-0.410004 -1.437333,-0.81743 -2.152344,-1.232422 -3.985965,-2.312013 -7.935315,-2.113519 -11.111328,0.5625 -1.091981,0.918992 -1.249278,0.836912 -1.697265,-0.539063 -0.221102,-0.67903 0.02255,-1.184728 0.298828,-1.720703 1.288857,-2.52 4.61619,-4.065971 7.607422,-3.960938 0.427313,0.01512 0.84922,0.06378 1.255859,0.148438 3.709002,0.767017 4.586809,3.806175 5.798828,6.742188 z M 39.955472,52.74414 c -0.248282,0.01021 -0.513105,-0.06043 -0.746094,-0.126953 -1.272,-0.360945 -2.151988,-1.299245 -3,-2.240234 -2.948977,-3.270993 -1.449981,-8.659091 2.916015,-9.953125 -2.395011,4.208012 -2.093993,6.89899 1.083985,10.625 0.33789,0.395981 0.728578,0.80897 0.392578,1.333984 -0.166488,0.259994 -0.398202,0.351114 -0.646484,0.361328 z m 11.273437,-1.539062 c -0.07819,0.0046 -0.168615,-0.0049 -0.271484,-0.0293 -0.72601,-0.171969 -1.007019,-0.824249 -1.207032,-1.447266 -0.23811,-0.741997 -0.125444,-1.483945 0.1875,-2.210937 1.394004,-3.242004 4.030155,-4.636199 7.369141,-4.949219 0.328441,-0.03024 0.659437,-0.05633 0.986328,-0.05859 v 0.002 c 0.980674,-0.0076 1.928646,0.187027 2.681641,1.003858 0.772006,0.837015 1.480509,1.734177 2.228515,2.617188 v 0.002 c -0.340913,0.212032 -0.564587,0.06142 -0.808593,0.01758 -4.365014,-0.752995 -7.816766,0.09034 -10.384766,3.988281 -0.236126,0.357893 -0.233914,1.032315 -0.78125,1.064454 z m -9.419922,-0.638672 c -0.538998,0.02268 -0.957084,-0.15192 -1.371094,-0.509766 -2.247004,-1.94502 -2.697681,-5.183725 -1.097656,-8.011719 1.095685,-1.933493 2.371366,-3.610757 4.875,-3.726562 v 0.002 c 0.0189,0.153071 0.04964,0.224928 0.02734,0.246094 -3.252019,3.281008 -4.087011,6.951523 -1.832031,11.144531 0.309165,0.573997 0.0035,0.830486 -0.601563,0.855469 z m 2.488282,-0.708985 c -0.401826,-0.05132 -0.733985,-0.35115 -0.96875,-0.720703 -0.349985,-0.549997 -0.734702,-1.107751 -0.929688,-1.71875 -0.944995,-2.976982 0.139088,-5.493414 2.076172,-7.65039 1.250608,-1.391887 2.732165,-1.865509 4.367187,-1.851563 0.980977,0.0076 2.017429,0.192755 3.091797,0.458985 -1.867993,0.846992 -3.478047,1.680796 -4.664062,3.216796 -1.601991,2.072013 -2.322494,4.329775 -2.0625,6.925782 0.048,0.482985 0.129659,1.11474 -0.486328,1.302734 -0.148498,0.04526 -0.289887,0.05422 -0.423828,0.03711 z m 3.884765,-0.03711 c -0.336701,0.0079 -0.669317,-0.174525 -0.935547,-0.361328 -0.719017,-0.504 -1.248697,-1.108005 -1.222656,-2.125 0.09184,-3.483024 2.065097,-5.688983 4.871094,-7.333984 1.033096,-0.604876 2.012566,-0.850093 2.96289,-0.808594 1.583887,0.06916 3.088258,0.936087 4.628907,2.261718 -1.87801,-0.205984 -3.278342,0.448043 -4.69336,0.957032 -2.596989,0.931993 -5.133375,4.08965 -5.109375,6.263672 0.0038,0.382979 0.340063,0.833348 -0.166015,1.068359 -0.11075,0.05178 -0.223704,0.0755 -0.335938,0.07813 z"
  />
</svg>
